<?xml version="1.0" encoding="utf-8"?>
<!-- Generator: Adobe Illustrator 23.0.5, SVG Export Plug-In . SVG Version: 6.00 Build 0)  -->
<svg version="1.1" id="Capa_1" xmlns="http://www.w3.org/2000/svg" xmlns:xlink="http://www.w3.org/1999/xlink" x="0px" y="0px"
	 viewBox="0 0 1067.2 91.39" style="enable-background:new 0 0 1067.2 91.39;" xml:space="preserve">
<style type="text/css">
	.st0{fill:#F0EEEE;}
	.st1{fill:#EF8F85;}
	.st2{fill:#EF8F85;stroke:#EF8F85;stroke-width:11;stroke-miterlimit:10;}
	.st3{fill:#00CCCC;}
	.st4{fill:#222222;}
	.st5{fill:#00A7A7;}
	.st6{fill:#458C8C;}
	.st7{fill:#D5715D;}
	.st8{fill:#E5B7B0;}
</style>
<rect x="406.79" y="-762.77" class="st0" width="335.44" height="426.92"/>
<path class="st1" d="M477.57,127.15c14.41,0.41,13.33-10.83,26.12-11.2c14.02-0.4,20.92,9.39,33.87,11.1
	c13.16,1.74,21.32-4.63,29.16-8.69c13.48-6.97,36.33-4.39,42.21,5.55c0.4,0.68,2.4,0.45,2.06-0.25
	c-3.02-6.3-13.72-11.08-26.39-11.16c-6.19-0.04-12.05,0.98-16.9,2.89c-6.36,2.5-10.47,6.29-17.29,8.51
	c-16.42,5.33-25.9-6.26-39.26-9.22c-5.56-1.23-11.6-1.13-16.16,0.95c-5.09,2.31-6.51,6.14-11.82,8.32
	c-7.98,3.28-14.57-2.59-21.32-4.3c-6.3-1.59-13.7-1.25-19.33,0.68c-2.45,0.84-0.1,2.98,2.3,2.12c6.79-2.45,14.13-1.67,20.37,1.06
	C468.82,125.1,472.59,127.01,477.57,127.15z"/>
<path class="st2" d="M323.29,66.29c63.72,0.93,58.19-32.37,114.7-33.72c61.93-1.48,93.05,27.41,150.37,32.23
	c58.28,4.9,93.89-14.16,128.3-26.34c59.1-20.92,160.25-13.73,186.87,15.62c1.83,2.01,10.62,1.28,9.1-0.78
	C898.87,34.68,851.3,20.73,795.3,20.75c-27.37,0.01-53.18,3.15-74.47,8.9c-27.93,7.54-45.84,18.86-75.84,25.56
	c-72.21,16.14-114.83-18.06-174.08-26.55c-24.66-3.54-51.35-3.12-71.35,3.12c-22.32,6.96-28.37,18.33-51.7,24.9
	c-35.06,9.87-64.53-7.38-94.5-12.32c-27.93-4.6-60.59-3.43-85.38,2.4c-10.79,2.54-0.25,8.85,10.29,6.24
	c29.86-7.41,62.32-5.24,90.08,2.74C284.51,60.39,301.26,65.97,323.29,66.29z"/>
<rect x="-186.35" y="-431.19" class="st3" width="335.44" height="426.92"/>
<rect x="180.35" y="-431.19" class="st4" width="335.44" height="426.92"/>
<rect x="547.05" y="-431.19" class="st5" width="335.44" height="426.92"/>
<rect x="913.74" y="-431.19" class="st6" width="335.44" height="426.92"/>
<rect x="769.36" y="270.65" class="st7" width="335.44" height="426.92"/>
<rect x="-170.72" y="229.99" class="st0" width="335.44" height="426.92"/>
<rect x="348.06" y="296.12" class="st8" width="335.44" height="426.92"/>
</svg>
