<?xml version="1.0" encoding="utf-8"?>
<!-- Generator: Adobe Illustrator 23.0.5, SVG Export Plug-In . SVG Version: 6.00 Build 0)  -->
<svg version="1.1" id="Capa_1" xmlns="http://www.w3.org/2000/svg" xmlns:xlink="http://www.w3.org/1999/xlink" x="0px" y="0px"
	 viewBox="0 0 478.21 478.21" style="enable-background:new 0 0 478.21 478.21;" xml:space="preserve">
<style type="text/css">
	.st0{fill:#F0EEEE;stroke:#F0EEEE;stroke-width:13;stroke-miterlimit:10;}
	.st1{fill:#F0EEEE;}
</style>
<g>
	<g>
		<path class="st0" d="M397.76,381.42l-115.2-115.2c40.46-49.49,33.15-122.4-16.34-162.87s-122.4-33.15-162.87,16.34
			s-33.15,122.4,16.34,162.87c42.62,34.85,103.9,34.85,146.53,0l115.2,115.2c4.59,4.43,11.91,4.31,16.34-0.28
			C402.08,392.99,402.08,385.89,397.76,381.42z M193.14,285.58c-51.03-0.06-92.39-41.41-92.45-92.45
			c0-51.06,41.39-92.45,92.45-92.45s92.45,41.39,92.45,92.45S244.2,285.58,193.14,285.58z"/>
	</g>
</g>
<rect x="112.29" y="-569.36" class="st1" width="335.44" height="426.92"/>
</svg>
