<?xml version="1.0" encoding="utf-8"?>
<!-- Generator: Adobe Illustrator 23.0.5, SVG Export Plug-In . SVG Version: 6.00 Build 0)  -->
<svg version="1.1" id="Layer_1" xmlns="http://www.w3.org/2000/svg" xmlns:xlink="http://www.w3.org/1999/xlink" x="0px" y="0px"
	 viewBox="0 0 22.67 70.18" style="enable-background:new 0 0 22.67 70.18;" xml:space="preserve">
<style type="text/css">
	.st0{fill:#00CCCC;stroke:#1C1C1B;stroke-miterlimit:10;}
	.st1{fill:#222222;stroke:#1C1C1B;stroke-miterlimit:10;}
	.st2{fill:#00A7A7;stroke:#1C1C1B;stroke-miterlimit:10;}
	.st3{fill:#458C8C;stroke:#1C1C1B;stroke-miterlimit:10;}
	.st4{fill:#D5715D;stroke:#1C1C1B;stroke-miterlimit:10;}
	.st5{fill:#F0EEEE;stroke:#1C1C1B;stroke-miterlimit:10;}
	.st6{fill:#E5B7B0;stroke:#1C1C1B;stroke-miterlimit:10;}
	.st7{fill:#FFAE46;}
	.st8{fill:#2F5B67;}
	.st9{opacity:0.2;}
</style>
<rect x="-641.22" y="-502.15" class="st0" width="335.44" height="426.92"/>
<rect x="-280.52" y="-614.15" class="st1" width="335.44" height="426.92"/>
<rect x="96.18" y="-657.15" class="st2" width="335.44" height="426.92"/>
<rect x="458.88" y="-502.15" class="st3" width="335.44" height="426.92"/>
<rect x="232.53" y="318.47" class="st4" width="335.44" height="426.92"/>
<rect x="-500.87" y="318.47" class="st5" width="335.44" height="426.92"/>
<rect x="-134.17" y="318.47" class="st6" width="335.44" height="426.92"/>
<path class="st7" d="M-78.03,861.72c-0.01-2.37-3.64-3.5-4.97-1.54c-0.43,0.64-0.89,1.25-1.35,1.86c-0.72,0.03-1.44,0.31-2.06,0.96
	c-0.98,1.04-2,2.03-3.03,2.99c-12.68-16.95-30.57-29.6-51.38-35.22c-19.01-5.13-43.73-4.79-62.95,4.27
	c-11.46-11.9-27.23-19.76-42.95-24.11c-24.03-6.64-53.66-6.89-72.19,12.28c-0.13,0.13-0.24,0.27-0.37,0.4
	c-4.8-0.92-9.4-1.55-13.4-2.04c-23.67-2.85-52.3,2.49-61.83,27.43c-0.93,2.44,2.69,4.17,3.7,1.73
	c10.45-25.32,40.52-27.04,63.82-23.18c1.32,0.22,2.66,0.44,4.01,0.67c-10.18,14.96-9.96,37.05,6.22,48.16
	c14.65,10.06,39.06,1.24,39.89-17.79c0.87-20.05-17.59-29.1-35.72-33.53c7.1-6.16,16.45-10.22,25.44-11.65
	c25.38-4.03,58.62,4.75,78.1,24.42c-4.92,2.92-9.37,6.5-13.09,10.83c-13.17,15.31-10.93,45.42,13.65,46.67
	c24.93,1.27,23.25-30.34,15.38-45.56c-1.75-3.39-3.83-6.53-6.13-9.49c4.96-2.12,10.05-3.66,14.67-4.65
	c34.62-7.38,69.77,6.98,90.19,34.56c-2.7,2.08-5.54,3.96-8.56,5.67c-0.32,0.18-0.57,0.42-0.76,0.67c-2.05-0.15-3.1,2.86-1.01,4.05
	c5.26,2.99,10.6,5.85,15.96,8.64c0.08,0.09,0.16,0.18,0.24,0.26c0.6,0.64,1.4,0.95,2.2,1c1.55,0.8,3.11,1.6,4.66,2.39
	c1.97,1,3.87-0.76,3.85-2.71C-77.86,880.68-77.97,871.2-78.03,861.72z M-293.64,838.11c9.69,6.81,16.28,21.05,6.74,30.81
	c-14.87,15.22-36.07,1.28-37.53-17.13c-0.69-8.75,2.41-16.33,7.6-22.43C-308.61,831-300.38,833.38-293.64,838.11z M-194.91,861.19
	c2.76,9.42,2.81,25.66-9.76,27.91c-9.39,1.67-17.97-5.47-19.56-14.52c-2.59-14.77,7.38-25.19,19.65-31.73
	C-200.24,848.28-196.89,854.4-194.91,861.19z"/>
<path class="st8" d="M79.34,597.16c6.06-6.28,12.03-12.64,18.03-18.97c5.8-6.12-3.47-15.41-9.26-9.26c-2.7,2.86-5.39,5.72-8.08,8.59
	c-0.58-15.81-0.64-32.3,1.86-47.77c0.65-4.01-1.58-7.2-5.74-7.53c-19.13-1.53-38.5-1.59-57.71-2.19
	c-1.02-16.35-2.04-32.71-3.06-49.06c-0.19-3.05-2.46-5.74-5.7-5.7c-9.2,0.12-18.4,0.35-27.61,0.55c-4.96,0.11-9.91,0.22-14.86,0.36
	c-3.67,0.11-9.54,1.52-12.9,0.27c-2.92-1.09-2.03-9.14-2.16-12.01c-0.21-4.66-0.42-9.32-0.63-13.98c-0.44-9.68-0.9-19.36-1.39-29.03
	c-0.13-2.62-2.11-4.84-4.85-4.85c-21.41-0.02-42.75,0.34-64.13,1.47c-3.78,0.2-3.76,5.61,0,5.87c19.82,1.32,39.62,1.98,59.48,2.28
	c0.4,9.88,0.82,19.76,1.27,29.64c0.26,5.73,0.39,11.48,0.78,17.21c0.27,3.96,0.86,7.91,4.03,10.65c3.06,2.64,7.09,2.84,10.94,2.89
	c5.66,0.08,11.33,0.12,16.99,0.13c9.89,0.02,19.78,0.04,29.67-0.01c0.95,16.33,1.9,32.65,2.85,48.98c0.19,3.24,2.52,5.68,5.82,5.82
	c18.93,0.79,38,2.29,56.97,2.57c-0.67,13.97-1.61,27.82-1.63,41.82c-4.08-4.07-8.51-7.72-13.48-9.9c-2.14-0.94-5,0.62-4.22,3.24
	c3.18,10.62,12.46,19.75,19.57,27.94C72.45,599.77,77.04,599.55,79.34,597.16z"/>
<g class="st9">
	<path class="st1" d="M15.06,21.54c-3.16,0.01-6.33-0.02-9.49,0.01c-0.43,0-0.43,0.67,0,0.67c3.16-0.03,6.33-0.12,9.49-0.18
		C15.38,22.03,15.38,21.54,15.06,21.54z"/>
	<path class="st1" d="M15.17,26.11c-3.03-0.06-6.06-0.09-9.08-0.08c-0.42,0-0.42,0.65,0,0.65c3.03-0.04,6.06-0.13,9.08-0.24
		C15.38,26.43,15.38,26.12,15.17,26.11z"/>
	<path class="st1" d="M15.57,30.97c-3.03-0.09-6.05-0.15-9.08-0.27c-0.42-0.02-0.42,0.65,0,0.65c3.03-0.01,6.05,0.03,9.08,0.04
		C15.84,31.4,15.84,30.98,15.57,30.97z"/>
	<path class="st1" d="M15.06,35.49c-2.99-0.25-5.98-0.49-8.97-0.6c-0.49-0.02-0.49,0.74,0,0.76c2.99,0.13,5.98,0.21,8.97,0.39
		C15.41,36.05,15.41,35.51,15.06,35.49z"/>
	<path class="st1" d="M14.96,39.47c-3.06,0.03-6.12,0.03-9.18,0.08c-0.51,0.01-0.51,0.81,0,0.8c3.06-0.08,6.12-0.22,9.18-0.32
		C15.31,40,15.32,39.46,14.96,39.47z"/>
	<path class="st1" d="M14.55,44c-2.96,0.05-5.92,0.02-8.88,0.06c-0.52,0.01-0.52,0.82,0,0.8c2.96-0.08,5.92-0.24,8.88-0.31
		C14.91,44.54,14.91,43.99,14.55,44z"/>
	<path class="st1" d="M14.45,49.82c-2.79-0.14-5.58-0.29-8.37-0.43c-0.51-0.03-0.51,0.78,0,0.8c2.79,0.08,5.58,0.15,8.37,0.22
		C14.83,50.42,14.83,49.84,14.45,49.82z"/>
	<path class="st1" d="M15.17,54.42c-3.26-0.07-6.53-0.08-9.8-0.21c-0.54-0.02-0.54,0.86,0,0.84c3.26-0.13,6.53-0.16,9.8-0.24
		C15.41,54.8,15.41,54.42,15.17,54.42z"/>
	<path class="st1" d="M4.55,60.1c3.67-0.45,7.35-0.8,11.03-1.19c0.33-0.04,0.35-0.56,0-0.53c-3.68,0.27-7.35,0.58-11.03,0.79
		C3.94,59.2,3.96,60.17,4.55,60.1z"/>
</g>
</svg>
