<?xml version="1.0" encoding="utf-8"?>
<!-- Generator: Adobe Illustrator 23.0.5, SVG Export Plug-In . SVG Version: 6.00 Build 0)  -->
<svg version="1.1" id="Layer_1" xmlns="http://www.w3.org/2000/svg" xmlns:xlink="http://www.w3.org/1999/xlink" x="0px" y="0px"
	 viewBox="0 0 403.13 185.58" style="enable-background:new 0 0 403.13 185.58;" xml:space="preserve">
<style type="text/css">
	.st0{fill:#00CCCC;stroke:#1C1C1B;stroke-miterlimit:10;}
	.st1{fill:#222222;stroke:#1C1C1B;stroke-miterlimit:10;}
	.st2{fill:#00A7A7;stroke:#1C1C1B;stroke-miterlimit:10;}
	.st3{fill:#458C8C;stroke:#1C1C1B;stroke-miterlimit:10;}
	.st4{fill:#D5715D;stroke:#1C1C1B;stroke-miterlimit:10;}
	.st5{fill:#F0EEEE;stroke:#1C1C1B;stroke-miterlimit:10;}
	.st6{fill:#E5B7B0;stroke:#1C1C1B;stroke-miterlimit:10;}
	.st7{fill:#FFAE46;}
	.st8{fill:#2F5B67;}
</style>
<rect x="-448.49" y="-367.95" class="st0" width="335.44" height="426.92"/>
<rect x="-87.79" y="-479.95" class="st1" width="335.44" height="426.92"/>
<rect x="288.91" y="-522.95" class="st2" width="335.44" height="426.92"/>
<rect x="651.6" y="-367.95" class="st3" width="335.44" height="426.92"/>
<rect x="447.25" y="268.67" class="st4" width="335.44" height="426.92"/>
<rect x="-286.14" y="268.67" class="st5" width="335.44" height="426.92"/>
<rect x="80.56" y="268.67" class="st6" width="335.44" height="426.92"/>
<path class="st7" d="M114.7,995.92c-0.01-2.37-3.64-3.5-4.97-1.54c-0.43,0.64-0.89,1.25-1.35,1.86c-0.72,0.03-1.44,0.31-2.06,0.96
	c-0.98,1.04-2,2.03-3.03,2.99c-12.68-16.95-30.57-29.6-51.38-35.22c-19.01-5.13-43.73-4.79-62.95,4.27
	c-11.46-11.9-27.23-19.76-42.95-24.11c-24.03-6.64-53.66-6.89-72.19,12.28c-0.13,0.13-0.24,0.27-0.37,0.4
	c-4.8-0.92-9.4-1.55-13.4-2.04c-23.67-2.85-52.3,2.49-61.83,27.43c-0.93,2.44,2.69,4.17,3.7,1.73
	c10.45-25.32,40.52-27.04,63.82-23.18c1.32,0.22,2.66,0.44,4.01,0.67c-10.18,14.96-9.96,37.05,6.22,48.16
	c14.65,10.06,39.06,1.24,39.89-17.79c0.87-20.05-17.59-29.1-35.72-33.53c7.1-6.16,16.45-10.22,25.44-11.65
	c25.38-4.03,58.62,4.75,78.1,24.42c-4.92,2.92-9.37,6.5-13.09,10.83c-13.17,15.31-10.93,45.42,13.65,46.67
	c24.93,1.27,23.25-30.34,15.39-45.56c-1.75-3.39-3.83-6.53-6.13-9.49c4.96-2.12,10.05-3.66,14.67-4.65
	c34.62-7.38,69.77,6.98,90.19,34.56c-2.7,2.08-5.54,3.96-8.56,5.67c-0.32,0.18-0.57,0.42-0.76,0.67c-2.05-0.15-3.1,2.86-1.01,4.05
	c5.26,2.99,10.6,5.85,15.96,8.64c0.08,0.09,0.16,0.18,0.24,0.26c0.6,0.64,1.4,0.95,2.2,1c1.55,0.8,3.11,1.6,4.66,2.39
	c1.97,1,3.87-0.76,3.85-2.71C114.87,1014.88,114.76,1005.4,114.7,995.92z M-100.91,972.31c9.69,6.81,16.28,21.05,6.74,30.81
	c-14.87,15.22-36.07,1.28-37.53-17.13c-0.69-8.75,2.41-16.33,7.6-22.43C-115.88,965.2-107.65,967.58-100.91,972.31z M-2.18,995.39
	c2.76,9.42,2.81,25.66-9.76,27.91c-9.39,1.67-17.97-5.47-19.56-14.52c-2.59-14.77,7.38-25.19,19.65-31.73
	C-7.51,982.48-4.17,988.6-2.18,995.39z"/>
<path class="st8" d="M294.07,547.36c6.06-6.28,12.03-12.64,18.03-18.97c5.8-6.12-3.47-15.41-9.26-9.26
	c-2.7,2.86-5.39,5.72-8.08,8.59c-0.58-15.81-0.64-32.3,1.86-47.77c0.65-4.01-1.59-7.2-5.74-7.53c-19.13-1.53-38.5-1.59-57.71-2.19
	c-1.02-16.35-2.04-32.71-3.06-49.06c-0.19-3.05-2.46-5.74-5.7-5.7c-9.2,0.12-18.4,0.35-27.61,0.55c-4.96,0.11-9.91,0.22-14.86,0.36
	c-3.67,0.11-9.54,1.52-12.9,0.27c-2.92-1.09-2.03-9.14-2.16-12.01c-0.21-4.66-0.42-9.32-0.63-13.98c-0.44-9.68-0.9-19.36-1.39-29.03
	c-0.13-2.62-2.11-4.84-4.85-4.85c-21.41-0.02-42.75,0.34-64.13,1.47c-3.78,0.2-3.76,5.61,0,5.87c19.82,1.32,39.62,1.98,59.48,2.28
	c0.4,9.88,0.82,19.76,1.27,29.64c0.26,5.73,0.39,11.48,0.78,17.21c0.27,3.96,0.86,7.91,4.03,10.65c3.06,2.64,7.09,2.84,10.94,2.89
	c5.66,0.08,11.33,0.12,16.99,0.13c9.89,0.02,19.78,0.04,29.67-0.01c0.95,16.33,1.9,32.65,2.85,48.98c0.19,3.24,2.52,5.68,5.82,5.82
	c18.93,0.79,38,2.29,56.97,2.57c-0.67,13.97-1.61,27.82-1.63,41.82c-4.08-4.07-8.51-7.72-13.48-9.9c-2.14-0.94-5,0.62-4.22,3.24
	c3.18,10.62,12.46,19.75,19.57,27.94C287.18,549.97,291.77,549.75,294.07,547.36z"/>
<g>
	<path class="st4" d="M76.13,95.45c28.05-13.76,54.05-28.45,77.64-44.22c2.66-1.78-3.3-3.54-5.92-1.76
		C124.88,65.08,99.66,79.83,72.1,93.4C69.47,94.7,73.49,96.74,76.13,95.45z"/>
	<path class="st4" d="M107.73,87.87c-18.65,9.95-35.23,21.11-52.77,31.58c-2.3,1.37,1.56,3.37,3.92,2
		c17.81-10.33,37.08-20.28,53.73-31.09C115.27,88.63,110.88,86.19,107.73,87.87z"/>
	<path class="st4" d="M136.15,82.99c16.14-9.65,33.81-18.61,53.15-26.61c3.46-1.43-1.54-4.04-4.95-2.52
		c-18.79,8.35-36.22,17.35-52.02,27.18C130.16,82.4,133.88,84.35,136.15,82.99z"/>
	<path class="st4" d="M141.1,97.86c-15.71,9.16-31.37,18.69-45.54,28.48c-1.38,0.95,1.6,2.06,3.18,1.25
		c16.59-8.56,32.45-17.84,47.59-27.07C149.33,98.68,144.25,96.02,141.1,97.86z"/>
	<path class="st4" d="M209.81,83.79c16.21-10.82,32.87-21.47,48.96-32.34c3.1-2.09-3.81-4.09-6.88-2.05
		c-16.22,10.78-31.89,21.79-48,32.62C201.22,83.83,207.17,85.56,209.81,83.79z"/>
	<path class="st4" d="M185.24,109.7c-20.38,8.9-36.9,20.47-50.15,32.27c-1.63,1.46,2.73,2.75,4.41,1.31
		c13.86-11.85,31.45-21.48,51.27-30.77C194.51,110.76,189.02,108.05,185.24,109.7z"/>
	<path class="st4" d="M154.93,112.56c9.71-6.05,19.51-12.07,29.51-18c3.27-1.94-2.4-4.22-5.5-2.16
		c-9.18,6.1-18.56,12.12-28.04,18.11C148.63,111.95,152.6,114.01,154.93,112.56z"/>
	<path class="st4" d="M258.7,67.04c-17.07,12.1-33.38,24.39-48.41,37.18c-2.22,1.89,3.57,3.61,5.8,1.72
		c14.88-12.59,31.07-24.87,49.03-36.38C268.75,67.22,262.16,64.59,258.7,67.04z"/>
	<path class="st4" d="M117.84,130.82c-14.82,11.46-29.79,22.87-44.88,34.24c-1.85,1.39,2.56,2.68,4.41,1.31
		c15.38-11.3,30.87-22.55,46.51-33.76C126.48,130.76,120.33,128.9,117.84,130.82z"/>
	<path class="st4" d="M179.48,136.23c-15.69,10.06-31.82,19.94-48.06,29.78c-2.06,1.25,1.46,3.06,3.55,1.8
		c16.26-9.79,32.63-19.53,49.43-29.08C187.42,137.02,182.21,134.48,179.48,136.23z"/>
	<path class="st4" d="M249.2,103.32c-16,9.48-30,19.94-42.92,30.54c-1.89,1.55,2.91,2.97,4.79,1.42
		c12.77-10.48,27.43-20.06,42.98-29.5C256.85,104.09,252.09,101.61,249.2,103.32z"/>
	<path class="st4" d="M224.76,142.16c-12.96,7.15-24.57,15.06-36.78,22.55c-2.45,1.5,1.71,3.68,4.27,2.17
		c12.47-7.36,25.87-14.48,37.57-22.15C232.55,142.94,227.97,140.39,224.76,142.16z"/>
	<path class="st4" d="M294.49,108.1c-9.48,4.66-17.57,10.66-24.49,16.34c-1.89,1.55,2.89,2.96,4.79,1.42
		c7.09-5.71,15.55-10.4,24.52-15.32C302.28,108.91,297.65,106.54,294.49,108.1z"/>
	<path class="st4" d="M282.58,92.02c8.59-4.27,17.15-8.57,26.02-12.7c3.63-1.69-2.07-4.59-5.4-2.74
		c-8.11,4.51-16.56,8.86-24.96,13.24C275.49,91.26,279.76,93.43,282.58,92.02z"/>
	<path class="st4" d="M88.52,69.97c7.16-5.83,15.74-11.18,25.56-15.91c3.58-1.73-2.11-4.6-5.4-2.74
		c-9.48,5.34-17.93,10.99-25.42,17.09C81.19,70.1,86.45,71.65,88.52,69.97z"/>
	<path class="st4" d="M13.95,93.29c-5.99,2.66-10.82,6.22-14.08,9.89c-1.58,1.78,3.53,3.34,5.21,1.55
		c3.35-3.59,7.88-6.37,13.72-8.97C22.13,94.28,17.26,91.82,13.95,93.29z"/>
	<path class="st4" d="M78.68,39.02c8.95-5.27,18.1-10.44,27.11-15.68c3.28-1.91-2.31-4.72-5.47-2.78
		c-8.75,5.37-17.36,10.8-26.18,16.15C71.51,38.3,75.96,40.62,78.68,39.02z"/>
	<path class="st4" d="M357.25,40.48c5.05-4.89,11.41-9.41,19.6-13.07c3.33-1.49-1.85-4.16-4.88-2.48
		c-7.78,4.29-14.62,8.81-19.8,14.04C350.47,40.68,355.48,42.19,357.25,40.48z"/>
	<path class="st4" d="M384.11,68.14c-14.79,5.28-28.38,11.57-41.01,18.12c-2.98,1.55,1.68,3.92,4.68,2.38
		c12.43-6.39,25.89-11.9,40.09-17.23C391.65,69.99,388.07,66.73,384.11,68.14z"/>
	<path class="st4" d="M335.64,121.95c-11.67,5.63-22.8,11.59-34.32,17.31c-2.94,1.46,1.56,3.74,4.51,2.29
		c11.56-5.7,23.59-11.2,34.97-16.98C344.13,122.88,339.05,120.31,335.64,121.95z"/>
	<path class="st4" d="M271.11,160.43c-6.36,2.63-12.31,5.53-18.42,8.31c-3.24,1.47,1.49,3.83,4.75,2.41
		c6.23-2.71,12.69-5.33,18.66-8.19C279.46,161.35,274.55,159,271.11,160.43z"/>
	<path class="st4" d="M281.89,40.47c3.58-3.1,7.51-6.14,10.89-9.29c2.11-1.97-3.7-3.71-5.92-1.76c-3.55,3.11-6.61,6.4-9.97,9.56
		C275.13,40.65,280,42.11,281.89,40.47z"/>
	<path class="st4" d="M214.07,47.16c3.52-1.55,6.99-3.13,10.58-4.64c2.81-1.18-1.35-3.38-4.06-2.07c-3.36,1.63-6.84,3.2-10.27,4.79
		C207.77,46.43,211.51,48.29,214.07,47.16z"/>
	<path class="st4" d="M396.74,27.6c-14.25,10.77-31.82,20.25-50.95,28.8c-2.62,1.17,1.21,3.1,3.82,1.94
		c19.51-8.61,36.72-18.26,52.97-28.45C405.96,27.77,399.76,25.32,396.74,27.6z"/>
</g>
</svg>
